<?xml version="1.0" encoding="utf-8"?>
<!-- Generator: Adobe Illustrator 23.0.2, SVG Export Plug-In . SVG Version: 6.00 Build 0)  -->
<svg version="1.1" id="图层_1" xmlns="http://www.w3.org/2000/svg" xmlns:xlink="http://www.w3.org/1999/xlink" x="0px" y="0px"
	 viewBox="0 0 233.3 242.6" style="enable-background:new 0 0 233.3 242.6;" xml:space="preserve">
<g>
	<g>
		<path d="M116.6,133.2c-36.7,0-66.6-29.9-66.6-66.6S79.9,0,116.6,0s66.6,29.9,66.6,66.6S153.4,133.2,116.6,133.2z M116.6,12
			C86.5,12,62,36.5,62,66.6s24.5,54.6,54.6,54.6c30.1,0,54.6-24.5,54.6-54.6S146.7,12,116.6,12z"/>
	</g>
	<g>
		<path d="M233.2,221.1c-0.5-17.6-6.6-33.6-16.5-46.7c-2.1-2.8-6.1-3.1-8.7-0.7l0,0c-2.2,2.1-2.5,5.5-0.7,7.9
			c8.7,11.7,13.9,26.2,13.9,41.9c0,4.1-0.4,8.1-1,11.9c-0.6,3.6,1.8,7,5.4,7.3c3.1,0.2,5.8-2,6.4-5
			C232.9,232.2,233.4,226.7,233.2,221.1z"/>
		<path d="M203.6,169.2c2.6-2.4,2.5-6.5-0.2-8.8c-14.6-12.1-33.3-19.4-53.6-19.4H83.4c-44.7,0-82.1,35.3-83.4,80
			c-0.2,5.6,0.3,11,1.2,16.3c0.5,2.8,2.7,5,5.5,5.2c4,0.3,7.1-3.2,6.4-7c-1.1-6.3-1.4-12.9-0.7-19.6c3.8-35.9,34.8-62.9,70.9-62.9
			h67.6c17.1,0,32.8,6.2,45,16.4C198.2,171.3,201.5,171.2,203.6,169.2L203.6,169.2z"/>
	</g>
</g>
</svg>
