<?xml version="1.0" encoding="utf-8"?>
<!-- Generator: Adobe Illustrator 23.0.2, SVG Export Plug-In . SVG Version: 6.00 Build 0)  -->
<svg version="1.1" id="图层_1" xmlns="http://www.w3.org/2000/svg" xmlns:xlink="http://www.w3.org/1999/xlink" x="0px" y="0px"
	 viewBox="0 0 211.1 107.3" style="enable-background:new 0 0 211.1 107.3;" xml:space="preserve">
<path d="M211,71.7c-1.4,0.5-2.8,1.1-4.3,1.6c-14.9,4.8-29.6,10.3-44.7,14.3c-10.3,2.7-21.1,3.5-31.8,4.6c-5.1,0.5-6.7-2.5-4.3-7
	c1.3-2.4,2.7-4.6,4.4-6.7c5.7-7,11.8-13.6,17.2-20.9c5.4-7.3,10.9-14.8,14.9-22.9c6-12.2,0.9-24.3-11.6-30
	C142,0.7,132.4-0.5,123,0.2c-40.4,3-75.3,18.2-102.9,48C11.8,57.2,4.2,66.9,1,79.1c-3.4,13,2.4,22.7,15.4,26.4
	c9.1,2.6,18.2,1.9,27.3,0.7c13.1-1.7,25.5-6,38.1-11.9c-10.7,1.6-20.5,3.2-30.4,4.4c-8.3,1-16.7,1-24.7-2.1c-7-2.7-9-9-3.7-14.3
	c4.3-4.3,9.6-7.7,14.9-10.9c2.2-1.4,3.3-2.5,3.1-5.1c-0.2-3-0.1-6.1-0.1-9.7c18.1,5.4,34.4,2.8,49.6-7.5c0.3,0.9,0.4,1.7,0.8,2.2
	c0.6,0.9,1.4,1.6,2.1,2.4c0.3-1,0.9-1.9,0.8-2.9c-0.4-4.2-3.3-6.9-8.1-7.7c0.8,1.1,1.5,2.2,2.3,3.4C75.6,55,62.2,57.6,47.2,53.1
	c1.4-1.8,3-3.4,5-4.7c4.9-3.3,6.4-7.3,3.1-12.5c-0.1-0.2,0.1-0.5,0.2-1c22.8-8.4,46.3-14.5,71.1-18.7c-2.4-2.2-4.2-3.8-6.6-6
	c1.9-0.6,3.3-1.7,4.3-1.3c8.3,3,16.8,5.7,24.7,9.6c4.7,2.3,5.9,7.8,3.2,12.4c-3.7,6.5-7.9,12.6-12.5,18.4
	c-7.6,9.4-16,18.1-23.5,27.6c-3.5,4.4-6.2,9.7-8.2,15c-2.1,5.6,0.8,10.9,6.8,11.7c6.3,0.8,13.1,0.9,19.2-0.4
	C161.5,97.6,186.5,85.2,211,71.7L211,71.7z"/>
</svg>
