<?xml version="1.0" encoding="utf-8"?>
<!-- Generator: Adobe Illustrator 23.0.2, SVG Export Plug-In . SVG Version: 6.00 Build 0)  -->
<svg version="1.1" id="图层_1" xmlns="http://www.w3.org/2000/svg" xmlns:xlink="http://www.w3.org/1999/xlink" x="0px" y="0px"
	 viewBox="0 0 146.5 128" style="enable-background:new 0 0 146.5 128;" xml:space="preserve">
<path d="M0,6.7c8.4,2.2,16.8,4.4,25.2,6.5c-0.1,33.9,0,67.8,0,101.8c-8.4,2.1-16.8,4.4-25.3,6.4C0.1,83.1,0,44.9,0,6.7z"/>
<g>
	<path d="M121.3,0c8.4,2.3,16.9,4,25.3,6.7c-0.1,38.3,0,76.6,0,114.9c-8.4,2.1-16.8,4.4-25.2,6.5C121.2,85.3,121.3,42.7,121.3,0z"/>
</g>
<g>
	<path d="M81.3,47.2c8.5-2.1,16.9-4.3,25.3-6.4c0.3,22.5,0,45.1,0.2,67.6c-8.5-2.1-17-4.5-25.5-6.6C81.3,83.7,81.3,65.4,81.3,47.2z"
		/>
</g>
<g>
	<path d="M39.8,57.2c8.5,2.1,16.9,4.5,25.4,6.4c0.1,18.2,0,36.4,0.1,54.6c-8.3,2.4-16.8,3.9-25,6.6c-0.7-1.3-0.4-2.9-0.5-4.3
		C39.8,99.5,39.8,78.3,39.8,57.2z"/>
</g>
</svg>
