<?xml version="1.0" encoding="utf-8"?>
<!-- Generator: Adobe Illustrator 23.0.2, SVG Export Plug-In . SVG Version: 6.00 Build 0)  -->
<svg version="1.1" id="图层_1" xmlns="http://www.w3.org/2000/svg" xmlns:xlink="http://www.w3.org/1999/xlink" x="0px" y="0px"
	 viewBox="0 0 216.9 234.1" style="enable-background:new 0 0 216.9 234.1;" xml:space="preserve">
<path d="M46.4,107.9c0.1,0.4,0.1,0.8,0.1,1.2c0,17.9-12.8,53-33.7,56.4c-3.4,0.5-6.5-1.8-7-5.1c0,0,0,0,0,0
	c-0.6-3.4,1.7-6.5,5.1-7.1c11.8-1.9,22.8-27.6,23.4-43c-0.1-0.4-0.1-0.7-0.1-1.1c0-41.3,33.3-74.8,74.3-74.8
	c40.5,0,73.6,32.8,74.3,73.4c0.1,0.4,0.1,0.9,0.1,1.3c0,19.3-3.1,42.5-8.5,63.7c-0.8,3.3-4.2,5.3-7.5,4.4c0,0,0,0,0,0
	c-3.3-0.9-5.3-4.2-4.4-7.5c5.1-19.7,8-41.2,8.1-59.3c-0.1-0.4-0.1-0.8-0.1-1.2c0-34.4-27.8-62.5-62.1-62.5
	C74.6,46.7,47.1,74,46.4,107.9L46.4,107.9z M80.5,107.9c0.1,0.4,0.1,0.7,0.1,1.1c0,11.9-2.8,25.6-7.8,38.6c-0.9,2.4-3.3,3.9-5.7,3.9
	c-0.7,0-1.5-0.1-2.2-0.4c-3.2-1.3-4.7-4.8-3.5-8c4.3-11.2,6.8-22.8,7-32.8c-0.1-0.4-0.1-0.8-0.1-1.2c0-22.3,18-40.5,40.2-40.5
	c21.7,0,39.4,17.4,40.2,39c0.1,0.4,0.2,0.9,0.2,1.4c0,2.8-0.1,5.7-0.2,8.7c-0.2,3.4-3.1,6-6.5,5.8c-3.4-0.2-6-3.1-5.8-6.5
	c0.1-2.2,0.2-4.5,0.2-6.7c-0.1-0.4-0.1-0.8-0.1-1.2c0-15.5-12.5-28.1-28-28.1C93.4,81,81.1,93,80.5,107.9L80.5,107.9z M6.1,115.3
	c-3.4,0-6.1-2.8-6.1-6.2C0,59.6,33.2,16.2,80.6,3.6c3.3-0.9,6.6,1.1,7.5,4.4c0,0,0,0,0,0c0.9,3.3-1.1,6.7-4.4,7.5
	c-42.1,11.2-71.5,49.7-71.5,93.6C12.3,112.5,9.5,115.3,6.1,115.3C6.1,115.3,6.1,115.3,6.1,115.3L6.1,115.3z M200.8,71
	c-2.4,0-4.5-1.4-5.5-3.5c-15.5-32.7-47.6-53.8-83.6-55c-1.1,0-2.2-0.1-3.2-0.1c-3.4,0-6.1-2.8-6.1-6.2c0-3.4,2.7-6.2,6.1-6.2
	c1.2,0,2.4,0,3.6,0.1c40.6,1.3,76.7,25.1,94.2,62c1.5,3.1,0.2,6.8-2.9,8.2C202.6,70.7,201.7,71,200.8,71L200.8,71z M210.7,115.3
	c-3.4,0-6.1-2.8-6.1-6.2c0-10.3-1.6-20.6-4.9-30.5c-1.1-3.2,0.7-6.7,3.9-7.8c3.2-1.1,6.7,0.7,7.8,3.9c0,0,0,0,0,0
	c3.6,11.1,5.5,22.7,5.5,34.4C216.9,112.5,214.1,115.3,210.7,115.3C210.7,115.3,210.7,115.3,210.7,115.3L210.7,115.3z M148.3,226.7
	c-1.2,0-2.3-0.3-3.4-1c-2.8-1.9-3.6-5.7-1.7-8.6c4.8-7.3,9.2-16.5,13.2-27.4c1.1-3.2,4.6-4.8,7.8-3.7c0,0,0,0,0,0
	c3.2,1.2,4.8,4.7,3.7,7.9c-4.3,11.8-9.1,21.9-14.5,30C152.2,225.7,150.3,226.7,148.3,226.7L148.3,226.7z M97.1,234.1
	c-1.8,0-3.4-0.7-4.6-2.1c-2.3-2.5-2-6.4,0.5-8.7c18.5-16.6,34-48.6,40.5-83.6c0.6-3.3,3.8-5.5,7.1-4.9c0,0,0,0,0,0
	c3.3,0.6,5.5,3.9,4.9,7.2c-7,37.5-24,72.2-44.4,90.5C100,233.5,98.6,234.1,97.1,234.1L97.1,234.1z M79.1,201.2
	c-1.3,0-2.7-0.4-3.8-1.3c-2.7-2.1-3.1-6-1-8.7c16.8-21.5,28.2-54.5,28.2-82.2c0-3.4,2.7-6.2,6.1-6.2c3.4,0,6.1,2.8,6.1,6.2
	c0,30.7-12.1,65.9-30.8,89.8C82.7,200.3,80.9,201.2,79.1,201.2z M57.2,220.9c-2.1,0-4.2-1.1-5.3-3.1c-1.7-3-0.7-6.7,2.3-8.4
	c2.5-1.4,5-3.2,7.4-5.1c2.6-2.1,6.5-1.7,8.6,0.9c0,0,0,0,0,0c2.1,2.7,1.7,6.5-0.9,8.7c-2.8,2.3-5.8,4.4-9,6.2
	C59.4,220.6,58.3,220.9,57.2,220.9L57.2,220.9z M28.8,196.4c-3.4,0-6.2-2.9-6.1-6.3c0-2.6,1.7-4.9,4.1-5.7
	c9.8-3.5,19.5-12.7,27.3-26.2c1.7-2.9,5.4-3.9,8.3-2.2c0,0,0,0,0.1,0c2.9,1.7,3.9,5.5,2.2,8.5c-6.6,11.3-17.8,25.9-33.8,31.6
	C30.2,196.3,29.5,196.4,28.8,196.4L28.8,196.4z"/>
</svg>
