<?xml version="1.0" encoding="utf-8"?>
<!-- Generator: Adobe Illustrator 23.0.2, SVG Export Plug-In . SVG Version: 6.00 Build 0)  -->
<svg version="1.1" id="图层_1" xmlns="http://www.w3.org/2000/svg" xmlns:xlink="http://www.w3.org/1999/xlink" x="0px" y="0px"
	 viewBox="0 0 215.3 215.3" style="enable-background:new 0 0 215.3 215.3;" xml:space="preserve">
<path d="M213.5,205l-50.1-50.1c14.5-16.4,23.3-38,23.3-61.6C186.7,41.9,144.8,0,93.3,0S0,41.9,0,93.3c0,51.5,41.9,93.3,93.3,93.3
	c23.6,0,45.1-8.8,61.6-23.3l50.1,50.1c1.2,1.2,2.7,1.8,4.2,1.8s3.1-0.6,4.2-1.8C215.9,211.2,215.9,207.4,213.5,205z M12,93.3
	C12,48.5,48.5,12,93.3,12c44.9,0,81.3,36.5,81.3,81.3s-36.5,81.3-81.3,81.3C48.5,174.7,12,138.2,12,93.3z"/>
</svg>
