<?xml version="1.0" encoding="utf-8"?>
<!-- Generator: Adobe Illustrator 23.0.2, SVG Export Plug-In . SVG Version: 6.00 Build 0)  -->
<svg version="1.1" id="图层_1" xmlns="http://www.w3.org/2000/svg" xmlns:xlink="http://www.w3.org/1999/xlink" x="0px" y="0px"
	 viewBox="0 0 244.8 172.3" style="enable-background:new 0 0 244.8 172.3;" xml:space="preserve">
<g>
	<path d="M13.7,172.3c-1.9,0-3.7-0.9-4.9-2.5c-1.9-2.7-1.3-6.4,1.3-8.4L231.6,1.1c2.7-1.9,6.4-1.3,8.4,1.3c1.9,2.7,1.3,6.4-1.3,8.4
		L17.3,171.1C16.2,171.9,15,172.3,13.7,172.3z"/>
</g>
<g>
	<path d="M143.3,76.5c0.9,2.4,1.4,5,1.4,7.7c0,12.3-10,22.3-22.3,22.3c-5.2,0-10-1.8-13.8-4.8l-10,7.2c6.2,5.9,14.5,9.6,23.7,9.6
		c18.9,0,34.3-15.4,34.3-34.3c0-5.3-1.2-10.4-3.4-14.9L143.3,76.5z"/>
	<path d="M100.6,88.4c-0.4-2.2-0.5-4.5-0.3-6.9c1.2-10.3,9.6-18.6,19.9-19.6c4.7-0.5,9.2,0.6,13,2.7c2,1.1,4.6,0.9,6.5-0.5l0,0
		c3.5-2.5,3.2-7.8-0.5-9.9c-5.6-3.2-12.3-4.8-19.3-4.3c-16.8,1.2-30.5,14.8-31.7,31.6c-0.2,3.1,0,6.2,0.5,9.1
		c0.8,4.3,5.9,6.3,9.4,3.7l0,0C100.1,93,101,90.7,100.6,88.4z"/>
</g>
<g>
	<path d="M40.8,135.9l2.7-2c2.6-1.9,2.4-5.8-0.4-7.4h0C23,115,12,99.9,12,84.1s11-30.8,31.1-42.4c21.1-12.2,49.3-18.9,79.3-18.9
		c20.7,0,40.4,3.2,57.6,9.2c1.8,0.6,3.9,0.3,5.4-0.8l0,0c3.9-2.8,3.1-8.9-1.5-10.5c-18.5-6.4-39.6-9.8-61.6-9.8
		c-32.1,0-62.4,7.3-85.3,20.5C13.2,45.2,0,64.8,0,84.1c0,25.5,27.1,46,35.7,51.8C37.3,137,39.3,137,40.8,135.9z"/>
	<path d="M207.7,31.3c-0.4-0.2-0.8-0.4-1.2-0.6l-10.8,7.8c2,1,4.1,2.1,6,3.2c20.1,11.6,31.1,26.7,31.1,42.4s-11,30.8-31.1,42.4
		c-21.1,12.2-49.3,18.9-79.3,18.9c-21.8,0-42.6-3.6-60.4-10.1l-11.5,8.3c20.7,9,45.7,13.8,71.9,13.8c32.1,0,62.4-7.3,85.3-20.5
		c23.9-13.8,37.1-32.6,37.1-52.8C244.8,63.9,231.7,45.2,207.7,31.3z"/>
</g>
</svg>
