<?xml version="1.0" encoding="utf-8"?>
<!-- Generator: Adobe Illustrator 23.0.2, SVG Export Plug-In . SVG Version: 6.00 Build 0)  -->
<svg version="1.1" id="图层_1" xmlns="http://www.w3.org/2000/svg" xmlns:xlink="http://www.w3.org/1999/xlink" x="0px" y="0px"
	 viewBox="0 0 244.8 146.7" style="enable-background:new 0 0 244.8 146.7;" xml:space="preserve">
<g>
	<path d="M122.4,146.7c-32.1,0-62.4-7.3-85.3-20.5C13.2,112.3,0,93.6,0,73.4c0-20.2,13.2-39,37.1-52.8C60,7.3,90.3,0,122.4,0
		s62.4,7.3,85.3,20.5c23.9,13.8,37.1,32.6,37.1,52.8c0,20.2-13.2,39-37.1,52.8C184.9,139.4,154.6,146.7,122.4,146.7z M122.4,12
		c-30.1,0-58.2,6.7-79.3,18.9C23,42.5,12,57.6,12,73.4s11,30.8,31.1,42.4c21.1,12.2,49.3,18.9,79.3,18.9s58.2-6.7,79.3-18.9
		c20.1-11.6,31.1-26.7,31.1-42.4s-11-30.8-31.1-42.4C180.6,18.7,152.5,12,122.4,12z"/>
</g>
<g>
	<path d="M122.4,107.6c-18.9,0-34.3-15.4-34.3-34.3s15.4-34.3,34.3-34.3s34.3,15.4,34.3,34.3S141.3,107.6,122.4,107.6z M122.4,51.1
		c-12.3,0-22.3,10-22.3,22.3s10,22.3,22.3,22.3s22.3-10,22.3-22.3S134.7,51.1,122.4,51.1z"/>
</g>
</svg>
