<?xml version="1.0" encoding="utf-8"?>
<!-- Generator: Adobe Illustrator 23.0.2, SVG Export Plug-In . SVG Version: 6.00 Build 0)  -->
<svg version="1.1" id="图层_1" xmlns="http://www.w3.org/2000/svg" xmlns:xlink="http://www.w3.org/1999/xlink" x="0px" y="0px"
	 viewBox="0 0 178.1 148.4" style="enable-background:new 0 0 178.1 148.4;" xml:space="preserve">
<path d="M164.7,132.8c8.4-8.1,13.4-18.8,13.4-30.5c0-20.3-15.3-37.6-36.6-43.7C140.2,26.1,109,0,70.8,0C31.7,0,0,27.2,0,60.7
	c0,15.4,6.7,29.5,17.7,40.2c3.4,3.3-0.6,12.5-5.5,20.1c8.4-2.5,17.3-4.1,25.1-4.1c3.7,0,7.1,0.3,10.1,1.1c9.1,2.7,18.6,3.8,28.2,3.3
	c8.4,16,27.2,27.1,48.9,27.1c6.2,0,12.2-0.9,17.8-2.6c2.3-0.6,4.9-0.9,7.6-0.9c5.9,0,12.7,1.2,19.1,3.1
	C165.1,142.3,162.1,135.4,164.7,132.8L164.7,132.8z M70.8,110.4c-7,0-13.9-1-20.6-3l-0.2-0.1l-0.2,0c-4.1-1-8.3-1.5-12.5-1.4
	c-2.7,0-5.3,0.2-7.9,0.4c0.5-6.5-1.8-10.8-4.6-13.6c-4.4-4.3-8-9.3-10.6-14.9c-2.4-5.4-3.7-11.2-3.7-17.1c0-12.8,6-25,16.8-34.3
	c5.7-4.9,12.3-8.6,19.3-11.2c7.8-2.8,15.9-4.2,24.2-4.2c8.4,0,16.5,1.4,24.2,4.2c7.1,2.5,13.6,6.3,19.3,11.2
	c9.7,8.3,15.5,18.9,16.6,30.2c-2.1-0.2-4.3-0.3-6.4-0.3c-29.7,0-53.7,20.6-53.7,46.1c0,2.7,0.3,5.4,0.8,8L70.8,110.4L70.8,110.4z
	 M157.7,124.6c-2.5,2.5-4.1,5.8-4.3,9.4c-1.2-0.1-2.3-0.1-3.5-0.1c-3.7,0-7.1,0.4-10.1,1.2l-0.2,0l-0.2,0c-4.8,1.4-9.8,2.2-14.9,2.2
	c-6,0-11.9-1-17.5-3c-5.1-1.8-9.8-4.5-13.9-8c-7.6-6.5-11.8-15-11.8-23.9c0-8.9,4.2-17.4,11.8-23.9c4.1-3.5,8.8-6.2,13.9-8
	c5.6-2,11.6-3,17.5-3c6.1,0,12,1,17.5,3c5.1,1.8,9.8,4.5,13.9,8c7.6,6.6,11.8,15.1,11.8,23.9c0,4-0.9,8-2.6,11.8
	C163.3,118.1,160.8,121.6,157.7,124.6L157.7,124.6z M39.7,48.9c0.1-6.4,3.8-11.6,8.5-11.6c4.7,0,8.5,5.2,8.5,11.7
	c0,6.5-3.8,11.7-8.5,11.7c-4.6,0-8.4-5.2-8.5-11.6C39.7,49.1,39.7,48.9,39.7,48.9z M83.7,48.9c0.1-6.4,3.8-11.6,8.5-11.6
	c4.7,0,8.5,5.2,8.5,11.7c0,6.5-3.8,11.7-8.5,11.7c-4.6,0-8.4-5.2-8.5-11.6C83.7,49.1,83.7,48.9,83.7,48.9z M103.2,93.8
	c0.1-4.9,3-8.9,6.5-8.9c3.6,0,6.5,4,6.5,9c0,5-2.9,9-6.5,9c-3.6,0-6.5-4-6.5-8.9L103.2,93.8L103.2,93.8z M134.6,93.8
	c0.1-4.9,3-8.9,6.5-8.9c3.6,0,6.5,4,6.5,9c0,5-2.9,9-6.5,9c-3.6,0-6.5-4-6.5-8.9V93.8z"/>
</svg>
