<?xml version="1.0" encoding="utf-8"?>
<!-- Generator: Adobe Illustrator 23.0.2, SVG Export Plug-In . SVG Version: 6.00 Build 0)  -->
<svg version="1.1" id="图层_1" xmlns="http://www.w3.org/2000/svg" xmlns:xlink="http://www.w3.org/1999/xlink" x="0px" y="0px"
	 viewBox="0 0 202.9 200" style="enable-background:new 0 0 202.9 200;" xml:space="preserve">
<style type="text/css">
	.st0{fill:#888888;}
</style>
<path class="st0" d="M101.8,162.3c49.5,0,90-38.3,90-65s-40.5-65-90-65s-90,38.3-90,65S52.3,162.3,101.8,162.3z M101.8,172.3
	c-65.3,0-100-52.5-100-75c0-22.8,34.8-75,100-75s100,52.5,100,75C202,120,167,172.3,101.8,172.3L101.8,172.3z M101.8,132.3
	c-19.3,0-35-15.8-35-35s15.8-35,35-35s35,15.8,35,35S121.3,132.3,101.8,132.3z M101.8,122.3c13.8,0,25-11.3,25-25s-11.3-25-25-25
	s-25,11.3-25,25S88,122.3,101.8,122.3z"/>
<path class="st0" d="M101.8,173.3c-66.5,0-101-53.2-101-76s34.5-76,101-76s101,53.3,101,76S168.5,173.3,101.8,173.3L101.8,173.3z
	 M101.8,23C36.3,23,2.5,75,2.5,97.3s33.8,74.3,99.3,74.3s99.2-52,99.2-74.3S167.3,23,101.8,23L101.8,23z M101.8,163
	c-52,0-91-40-91-66s39.3-65.7,91-65.7s91,40,91,66S153.8,163,101.8,163L101.8,163z M101.8,33C51,33,12.5,72,12.5,97.3
	s38.3,64.3,89.2,64.3s89.3-39,89.3-64.3S152.8,33,101.8,33z M101.8,133c-19.8,0-36-16-36-36c0-19.8,16-36,36-36s36,16.5,36,36.3
	S121.5,133,101.8,133L101.8,133z M101.8,63C83,63,67.5,78.2,67.5,97.3s15.3,34.3,34.3,34.3S136,116.2,136,97.3S120.8,63,101.8,63z
	 M101.8,123c-14.3,0-26-11.5-26-26s11.7-25.8,26-25.8s26,11.5,26,26S116,123,101.8,123z M101.8,73c-13.3,0-24.3,10.8-24.3,24.3
	c0,13.3,10.8,24.3,24.3,24.3S126,110.8,126,97.3S115.3,73,101.8,73L101.8,73z"/>
<g>
	<path class="st0" d="M8.9,179.3c-1.8,0-3.5-0.8-4.7-2.2c-2.1-2.6-1.7-6.4,0.9-8.4L190,20.5c2.6-2.1,6.4-1.7,8.4,0.9
		c2.1,2.6,1.7,6.4-0.9,8.4L12.6,177.9C11.5,178.8,10.2,179.3,8.9,179.3z"/>
</g>
</svg>
