<?xml version="1.0" standalone="no"?><!DOCTYPE svg PUBLIC "-//W3C//DTD SVG 1.1//EN" "http://www.w3.org/Graphics/SVG/1.1/DTD/svg11.dtd"><svg t="1583563204475" class="icon" viewBox="0 0 1039 1024" version="1.1" xmlns="http://www.w3.org/2000/svg" p-id="2316" xmlns:xlink="http://www.w3.org/1999/xlink" width="202.9296875" height="200"><defs><style type="text/css"></style></defs><path d="M520.96 830.72c253.44 0 460.8-195.84 460.8-332.8s-207.36-332.8-460.8-332.8-460.8 195.84-460.8 332.8 207.36 332.8 460.8 332.8z m0 51.2c-334.08 0-512-268.8-512-384 0-116.48 177.92-384 512-384s512 268.8 512 384c1.28 116.48-177.92 384-512 384z m0-204.8c-98.56 0-179.2-80.64-179.2-179.2s80.64-179.2 179.2-179.2 179.2 80.64 179.2 179.2-79.36 179.2-179.2 179.2z m0-51.2c70.4 0 128-57.6 128-128s-57.6-128-128-128-128 57.6-128 128 57.6 128 128 128z m0 0" fill="#888888" p-id="2317"></path><path d="M520.96 887.04C180.48 887.04 3.84 614.4 3.84 497.92S180.48 108.8 520.96 108.8s517.12 272.64 517.12 389.12-175.36 389.12-517.12 389.12z m0-769.28C185.6 117.76 12.8 384 12.8 497.92s172.8 380.16 508.16 380.16 508.16-266.24 508.16-380.16S856.32 117.76 520.96 117.76z m0 716.8c-266.24 0-465.92-204.8-465.92-337.92S256 160 520.96 160s465.92 204.8 465.92 337.92-199.68 336.64-465.92 336.64z m0-665.6C261.12 168.96 64 368.64 64 497.92s195.84 328.96 456.96 328.96S977.92 627.2 977.92 497.92 782.08 168.96 520.96 168.96z m0 512c-101.12 0-184.32-81.92-184.32-184.32 0-101.12 81.92-184.32 184.32-184.32S705.28 396.8 705.28 497.92s-83.2 183.04-184.32 183.04z m0-358.4c-96 0-175.36 78.08-175.36 175.36s78.08 175.36 175.36 175.36 175.36-78.08 175.36-175.36-78.08-175.36-175.36-175.36z m0 307.2c-72.96 0-133.12-58.88-133.12-133.12S448 364.8 520.96 364.8s133.12 58.88 133.12 133.12-60.16 131.84-133.12 131.84z m0-256c-67.84 0-124.16 55.04-124.16 124.16 0 67.84 55.04 124.16 124.16 124.16s124.16-55.04 124.16-124.16c0-69.12-55.04-124.16-124.16-124.16z" fill="#888888" p-id="2318"></path></svg>